# xmcd
#
# Track frame offsets: 
#        150
#        26592
#        47225
#        64749
#        90635
#        108670
#        129577
#        148539
#        168791
#        191820
#        213775
#        234750
#        254115
#
# Disc length: 3570 seconds
#
# Revision: 0
# Processed by: cddbd v1.5.2PL0 Copyright (c) Steve Scherf et al.
# Submitted via: ExactAudioCopyFreeDBPlugin 1.0
#
DISCID=b70df00d
DTITLE=Malou - Malou zu Fünft
DYEAR=2014
DGENRE=
TTITLE0=Johny
TTITLE1=Gracias a la vida
TTITLE2=La Foule
TTITLE3=Trop Loin
TTITLE4=Little Wing
TTITLE5=Prochain depart
TTITLE6=Etoile
TTITLE7=Every breath you take
TTITLE8=Blame it on the sun
TTITLE9=You've got a friend
TTITLE10=Big yello taxi
TTITLE11=Live on Mars
TTITLE12=You'd still be there
EXTD=
EXTT0=
EXTT1=
EXTT2=
EXTT3=
EXTT4=
EXTT5=
EXTT6=
EXTT7=
EXTT8=
EXTT9=
EXTT10=
EXTT11=
EXTT12=
PLAYORDER=
